<svg xmlns="http://www.w3.org/2000/svg" viewBox="0 0 1039.4 223.4">
	<path fill="#404040" d="M82.1 66.3c0-21.6-15.8-38.7-37.4-38.7S7.6 45.9 7.6 65.6c0 21.1 17.2 37.5 37.5 37.5 7.3 0 14.3-2.2 20.2-6.4 6-4.1 11-10.2 14.4-18.1H58c-2.9 3.7-6.4 6.6-12.9 6.6-8.3 0-15.3-5-16.6-13.4h53.1c.2-1.6.5-2.7.5-5.5zm-53.4-8.7c.9-4.2 5.1-12.1 16.1-12.1 11 0 15.2 7.9 16.1 12.1H28.7zM142.8 6.4V36c-2.3-2.3-8.3-8.4-20.8-8.4-18 0-35.1 13.7-35.1 37.6 0 21.3 14 37.9 35.5 37.9 14.3 0 19.4-7 21.2-10h.3v7.7h20.2V6.4h-21.3zm-17 77c-10 0-17.7-7.3-17.7-18.2 0-8.2 5.7-17.7 18-17.7 11.7 0 17.9 9.2 17.9 17.7-.1 7.3-4.9 18.2-18.2 18.2zm109.5 17.5h-20v-7.5h-.3c-4.3 9.1-13 9.8-18.4 9.8-4.3 0-14.5-1-20.8-8.9-5.6-7-6.4-12.1-6.4-21.8V30.1h21.2v39.2c0 4.8 0 14.2 11.4 14.2 6.1 0 12.1-3.2 12.1-14.4v-39h21.2v70.8zm80.3-27c-3.8 16.1-18 29.2-37.1 29.2-21.4 0-37.9-16.8-37.9-37.9 0-20.8 16.2-37.6 37.4-37.6 18.8 0 33.9 12.4 37.5 29.7H294c-2.3-4.8-6.5-10-15.3-10-10.1-.5-16.8 7.8-16.8 18 0 10.3 6.8 18 16.8 18 8.8 0 13-5.1 15.3-9.4h21.6zm59.7-43.8v7.5h-.3c-2.6-4.3-9.1-10-20.7-10-18.9 0-35.6 14.5-35.6 37.8 0 20.3 13.1 37.9 35.6 37.9 8.3 0 17.1-3.2 20.7-10.1h.3v7.7h21.2V30.1h-21.2zm-17.8 53.4c-12.8 0-17.6-11.2-17.6-17.9 0-8 5.4-18.2 17.5-18.2 12 0 17.9 9.4 17.9 18 0 6.9-4.5 18.1-17.8 18.1zm75.3-53.4H443v16h-10.2v54.8h-21.2V46.1h-10.4v-16h10.4V6.4h21.2zm85 36.2c0-21.6-15.8-38.7-37.4-38.7-21.6 0-37.1 18.2-37.1 38 0 21.1 17.2 37.5 37.5 37.5 7.3 0 14.3-2.2 20.2-6.4 6-4.1 11-10.2 14.4-18.1h-21.7c-2.9 3.7-6.4 6.6-12.9 6.6-8.3 0-15.3-5-16.6-13.4h53.1c.2-1.6.5-2.7.5-5.5zm-53.3-8.7c.9-4.2 5.1-12.1 16.1-12.1 11 0 15.2 7.9 16.1 12.1h-32.2zm61.3 21.6h22.1v21.7h-22.1zm83.8-49.1v7.5h-.3c-2.6-4.3-9.1-10-20.7-10-18.9 0-35.6 14.5-35.6 37.8 0 20.3 13.1 37.9 35.6 37.9 8.3 0 17.1-3.2 20.7-10.1h.3v7.7h21.2V30.1h-21.2zm-17.7 53.4c-12.8 0-17.6-11.2-17.6-17.9 0-8 5.4-18.2 17.5-18.2 12 0 17.9 9.4 17.9 18-.1 6.9-4.5 18.1-17.8 18.1zm99.9-53.4v6.6h-.3c-3.8-6.1-11.6-8.9-19.5-8.9-18.4 0-35.7 13.9-35.7 38.2 0 22.7 16.5 37.3 35.7 37.3 11.1 0 17.2-6 19.4-10.1h.3v2.2c0 19-14.5 19.3-17.2 19.3-1.4 0-9.3 0-12.4-7h-24.5c1.4 10.1 10.7 24.9 35.3 24.9 17.5 0 30.4-7.8 35.9-16.7 3.4-6 4.2-12.8 4.2-23.4V30.1h-21.2zm-17.3 53.3c-8.8 0-17-6.9-17-18.2 0-10.3 8-17.6 17.1-17.6 9.4 0 17.2 6.9 17.2 18.2 0 10.2-7.1 17.6-17.3 17.6zm100.2-53.3v7.5h-.3c-2.6-4.3-9.1-10-20.7-10-18.9 0-35.6 14.5-35.6 37.8 0 20.3 13.1 37.9 35.6 37.9 8.3 0 17.1-3.2 20.7-10.1h.3v7.7h21.2V30.1h-21.2zM757 83.5c-12.8 0-17.6-11.2-17.6-17.9 0-8 5.4-18.2 17.5-18.2 12 0 17.9 9.4 17.9 18-.1 6.9-4.6 18.1-17.8 18.1zm68.9 17.4h-21.2V30.1h21.2v70.8zm0-78.4h-21.2V6.4h21.2v16.1zm8.7 7.6h19.8v7.5h.3c2.2-3.4 6.6-10 19.3-10 6.8 0 14.3 2.8 18.1 6.1 3.8 3.3 8.2 8.9 8.2 22.8v44.3H879V62.2c0-5 0-14.7-11.1-14.7-12.1 0-12.1 10.5-12.1 14.8v38.5h-21.2V30.1zM940.3 50c-.1-1.5-.4-5.4-6.6-5.4-4.5 0-6 2.8-6 4.7 0 3.8 5.2 6 10.8 7.7 12 3.3 24.8 6.9 24.8 22.2 0 14.9-13.1 24.1-28.8 24.1-10.7 0-26.9-4.8-28.8-23.5h21.1c.9 6.5 7.1 6.5 8 6.5 3.6 0 7.4-2 7.4-5.5 0-5.5-5.2-6.1-18.8-11.4-9.2-2.9-16.8-8.9-16.8-18.5 0-14 12.8-23.4 27.4-23.4 9.3 0 25.4 3.7 27.2 22.3h-20.9zm58.9-19.9h10.2v16h-10.2v54.8H978V46.1h-10.4v-16H978V6.4h21.2zm11.6 49.1h22.1v21.7h-22.1zM21.2 122.5h21.2v30.1h.3c3.6-6.4 10.7-8.9 18.2-8.9 6.8 0 14.8 2.4 19.3 7.8 6 7 6.6 13.3 6.6 25.9V217H65.6v-38.5c0-3.4 0-14.8-11.4-14.8-11.9 0-11.9 10.6-11.9 14V217H21.2v-94.5zm128.7 23.6v7.5h-.3c-2.6-4.3-9.1-10-20.7-10-18.9 0-35.6 14.5-35.6 37.8 0 20.3 13.1 37.9 35.6 37.9 8.3 0 17.1-3.2 20.7-10.1h.3v7.7h21.2v-70.8h-21.2zm-17.7 53.5c-12.8 0-17.6-11.2-17.6-17.9 0-8 5.4-18.2 17.5-18.2 12 0 17.9 9.4 17.9 18-.1 6.9-4.6 18.1-17.8 18.1zm77.8-53.5h10.2v16.1H210v54.7h-21.2v-54.7h-10.5v-16.1h10.5v-23.6H210zm85 36.3c0-21.6-15.8-38.7-37.4-38.7-21.6 0-37.1 18.2-37.1 38 0 21.1 17.2 37.5 37.5 37.5 7.3 0 14.3-2.2 20.2-6.4 6-4.1 11-10.2 14.4-18.1h-21.7c-2.9 3.7-6.4 6.6-12.9 6.6-8.3 0-15.3-5-16.6-13.4h53.1c.2-1.6.5-2.7.5-5.5zm-53.4-8.7c.9-4.2 5.1-12.1 16.1-12.1 11 0 15.2 7.9 16.1 12.1h-32.2z"/>
	<path fill="#E8402B" d="M7.8 173.1h297.6v16H7.8z"/>
</svg>
